{"scene":0,"asset":{"generator":"ImageToStl.com","version":"2.0"},"scenes":[{"name":"Scene","nodes":[0]}],"nodes":[{"name":"Node0","children":[1]},{"name":"Node1","mesh":0}],"materials":[{"name":"color_2829873","pbrMetallicRoughness":{"baseColorFactor":[0.16862746,0.18039216,0.19215687,1.0],"metallicFactor":0.0,"roughnessFactor":1.0},"doubleSided":true},{"name":"color_10988977","pbrMetallicRoughness":{"baseColorFactor":[0.654902,0.6784314,0.69411767,1.0],"metallicFactor":0.0,"roughnessFactor":1.0},"doubleSided":true}],"meshes":[{"name":"Mesh0","primitives":[{"indices":1,"material":0,"attributes":{"POSITION":0}},{"indices":2,"material":1,"attributes":{"POSITION":0}}]}],"accessors":[{"bufferView":0,"componentType":5126,"count":206,"type":"VEC3","min":[-67.0,-11.0,0.0],"max":[56.033,9.0,41.0]},{"bufferView":1,"componentType":5123,"count":624,"type":"SCALAR"},{"bufferView":2,"componentType":5123,"count":618,"type":"SCALAR"}],"bufferViews":[{"target":34962,"buffer":0,"byteLength":2472,"byteOffset":0},{"target":34963,"buffer":0,"byteLength":1248,"byteOffset":2472},{"target":34963,"buffer":0,"byteLength":1236,"byteOffset":3720}],"buffers":[{"byteLength":4956,"uri":"data:application/octet-stream;base64,"}]}