{"scene":0,"asset":{"generator":"ImageToStl.com","version":"2.0"},"scenes":[{"name":"Scene","nodes":[0]}],"nodes":[{"name":"Node0","children":[1]},{"name":"Node1","mesh":0}],"materials":[{"name":"color_11909273","pbrMetallicRoughness":{"baseColorFactor":[0.70980394,0.72156864,0.6,1.0],"metallicFactor":0.0,"roughnessFactor":1.0},"doubleSided":true}],"meshes":[{"name":"Mesh0","primitives":[{"indices":1,"material":0,"attributes":{"POSITION":0}}]}],"accessors":[{"bufferView":0,"componentType":5126,"count":2432,"type":"VEC3","min":[-74.71,-29.803,0.0],"max":[134.262,29.803,36.494]},{"bufferView":1,"componentType":5123,"count":15450,"type":"SCALAR"}],"bufferViews":[{"target":34962,"buffer":0,"byteLength":29184,"byteOffset":0},{"target":34963,"buffer":0,"byteLength":30900,"byteOffset":29184}],"buffers":[{"byteLength":60084,"uri":"data:application/octet-stream;base64,"}]}